<svg xmlns="http://www.w3.org/2000/svg" width="12.936" height="9.408" viewBox="0 0 12.936 9.408">
  <path id="surface1" d="M11.172,1.176A6.183,6.183,0,0,0,8.232,0L8.089.287a5.68,5.68,0,0,1,2.79,1.477A8.649,8.649,0,0,0,6.468.588a8.649,8.649,0,0,0-4.41,1.176A5.8,5.8,0,0,1,4.848.287L4.7,0a6.144,6.144,0,0,0-2.94,1.176A13.55,13.55,0,0,0,0,7.644,5.555,5.555,0,0,0,3.822,9.408L4.3,8.766a5.891,5.891,0,0,1-2.54-1.71,7.414,7.414,0,0,0,4.7,1.47,7.414,7.414,0,0,0,4.7-1.47,5.887,5.887,0,0,1-2.54,1.71l.482.642a5.555,5.555,0,0,0,3.822-1.764A13.55,13.55,0,0,0,11.172,1.176ZM4.557,6.468A1.11,1.11,0,0,1,3.528,5.292,1.11,1.11,0,0,1,4.557,4.116,1.11,1.11,0,0,1,5.586,5.292,1.11,1.11,0,0,1,4.557,6.468Zm3.822,0A1.11,1.11,0,0,1,7.35,5.292,1.11,1.11,0,0,1,8.379,4.116,1.11,1.11,0,0,1,9.408,5.292,1.11,1.11,0,0,1,8.379,6.468Z" fill="#393939"/>
</svg>
